<svg width="200" height="200" viewBox="0 0 200 200" fill="none" xmlns="http://www.w3.org/2000/svg">
  <!-- Whale body -->
  <path d="M40 100C40 80 50 65 70 60C90 55 120 55 140 60C160 65 170 80 170 100C170 120 160 135 140 140C120 145 90 145 70 140C50 135 40 120 40 100Z" fill="#2563EB" stroke="#1E40AF" stroke-width="2"/>
  
  <!-- Whale tail -->
  <path d="M165 100C165 100 175 90 185 85C190 82 195 85 195 90C195 95 190 100 185 100C180 100 170 98 165 100Z" fill="#2563EB" stroke="#1E40AF" stroke-width="2"/>
  <path d="M165 105C165 105 175 115 185 120C190 123 195 120 195 115C195 110 190 105 185 105C180 105 170 107 165 105Z" fill="#2563EB" stroke="#1E40AF" stroke-width="2"/>
  
  <!-- Whale fin -->
  <path d="M100 60C100 60 95 45 95 35C95 30 100 28 103 32C106 36 108 50 100 60Z" fill="#2563EB" stroke="#1E40AF" stroke-width="2"/>
  
  <!-- Whale head/mouth -->
  <path d="M40 100C40 100 30 95 25 95C20 95 15 98 15 102C15 106 20 110 25 110C30 110 35 105 40 100Z" fill="#2563EB" stroke="#1E40AF" stroke-width="2"/>
  
  <!-- Eye -->
  <circle cx="55" cy="90" r="4" fill="#1E293B"/>
  <circle cx="56" cy="89" r="1.5" fill="white"/>
  
  <!-- Blockchain links overlay -->
  <g opacity="0.7">
    <!-- Chain link 1 -->
    <rect x="60" y="95" width="15" height="15" rx="3" fill="none" stroke="#60A5FA" stroke-width="2"/>
    <rect x="80" y="95" width="15" height="15" rx="3" fill="none" stroke="#60A5FA" stroke-width="2"/>
    <line x1="75" y1="102.5" x2="80" y2="102.5" stroke="#60A5FA" stroke-width="2"/>
    
    <!-- Chain link 2 -->
    <rect x="100" y="95" width="15" height="15" rx="3" fill="none" stroke="#60A5FA" stroke-width="2"/>
    <line x1="95" y1="102.5" x2="100" y2="102.5" stroke="#60A5FA" stroke-width="2"/>
    
    <!-- Chain link 3 -->
    <rect x="120" y="95" width="15" height="15" rx="3" fill="none" stroke="#60A5FA" stroke-width="2"/>
    <line x1="115" y1="102.5" x2="120" y2="102.5" stroke="#60A5FA" stroke-width="2"/>
  </g>
  
  <!-- Water waves -->
  <path d="M10 150C20 145 30 155 40 150C50 145 60 155 70 150C80 145 90 155 100 150C110 145 120 155 130 150C140 145 150 155 160 150C170 145 180 155 190 150" stroke="#3B82F6" stroke-width="2" fill="none" opacity="0.5"/>
  <path d="M10 160C20 155 30 165 40 160C50 155 60 165 70 160C80 155 90 165 100 160C110 155 120 165 130 160C140 155 150 165 160 160C170 155 180 165 190 160" stroke="#3B82F6" stroke-width="2" fill="none" opacity="0.3"/>
</svg>
