<svg width="32" height="32" viewBox="0 0 32 32" fill="none" xmlns="http://www.w3.org/2000/svg">
  <!-- Whale body -->
  <path d="M6 16C6 13 8 11 11 10C14 9 19 9 22 10C25 11 26 13 26 16C26 19 25 21 22 22C19 23 14 23 11 22C8 21 6 19 6 16Z" fill="#2563EB"/>
  
  <!-- Whale tail -->
  <path d="M25.5 16C25.5 16 27 15 28.5 14.5C29.5 14 30 14.5 30 15.5C30 16.5 29.5 17 28.5 17C27.5 17 26 16.5 25.5 16Z" fill="#2563EB"/>
  <path d="M25.5 16.5C25.5 16.5 27 17.5 28.5 18C29.5 18.5 30 18 30 17C30 16 29.5 15.5 28.5 15.5C27.5 15.5 26 16 25.5 16.5Z" fill="#2563EB"/>
  
  <!-- Whale fin -->
  <path d="M16 10C16 10 15 7 15 5C15 4 16 3.5 16.5 4.5C17 5.5 17.5 8 16 10Z" fill="#2563EB"/>
  
  <!-- Eye -->
  <circle cx="9" cy="14.5" r="1" fill="#1E293B"/>
  
  <!-- Blockchain link -->
  <rect x="10" y="15" width="3" height="3" rx="0.5" fill="none" stroke="#60A5FA" stroke-width="0.5"/>
  <rect x="14" y="15" width="3" height="3" rx="0.5" fill="none" stroke="#60A5FA" stroke-width="0.5"/>
  <line x1="13" y1="16.5" x2="14" y2="16.5" stroke="#60A5FA" stroke-width="0.5"/>
  <rect x="18" y="15" width="3" height="3" rx="0.5" fill="none" stroke="#60A5FA" stroke-width="0.5"/>
  <line x1="17" y1="16.5" x2="18" y2="16.5" stroke="#60A5FA" stroke-width="0.5"/>
</svg>
