<svg width="32" height="32" viewBox="0 0 32 32" fill="none" xmlns="http://www.w3.org/2000/svg">
  <!-- Water spray -->
  <path d="M14 7C14 7 14.5 4 15 3C15.2 2.5 15.5 2.5 15.7 3C16 4 16 5.5 15.5 7Z" fill="#60A5FA"/>
  <path d="M17 7C17 7 17.5 4.5 18 3.5C18.2 3 18.5 3 18.7 3.5C19 4.5 19 6 18.5 7Z" fill="#60A5FA"/>
  
  <!-- Main body -->
  <ellipse cx="16" cy="16" rx="11" ry="7" fill="#2563EB"/>
  
  <!-- Belly -->
  <ellipse cx="16" cy="18.5" rx="8.5" ry="4.5" fill="#3B82F6"/>
  
  <!-- Tail -->
  <path d="M26 15C26 15 28 12 29.5 10.5C30 10 30.5 10.5 30 11.5C29.5 12.5 28 14 27 15C28 15.5 29.5 16.5 30 18C30.5 19 30 19.5 29.5 19C28 17.5 26.5 16.5 26 17Z" fill="#2563EB"/>
  
  <!-- Eye -->
  <circle cx="9" cy="14" r="1.2" fill="white"/>
  <circle cx="9.5" cy="14" r="0.7" fill="#1E293B"/>
  
  <!-- Chain links -->
  <circle cx="16" cy="15" r="1.5" fill="none" stroke="#60A5FA" stroke-width="0.6"/>
  <circle cx="19" cy="15" r="1.5" fill="none" stroke="#60A5FA" stroke-width="0.6"/>
  <line x1="17.5" y1="15" x2="17.5" y2="15" stroke="#60A5FA" stroke-width="0.6"/>
  
  <!-- Wave -->
  <path d="M4 26C8 24 12 28 16 26C20 24 24 28 28 26" stroke="#60A5FA" stroke-width="1" fill="none" opacity="0.5" stroke-linecap="round"/>
</svg>
